Coordinates
version=1
nRows=10
nColumns=44
inDegrees=yes

Units are S.I. units (second, meters, Newtons, ...)
If the header above contains a line with 'inDegrees', this indicates whether rotational values are in degrees (yes) or radians (no).

endheader
time	pelvis_tilt	pelvis_list	pelvis_rotation	pelvis_tx	pelvis_ty	pelvis_tz	hip_flexion_r	hip_adduction_r	hip_rotation_r	knee_angle_r	knee_frontal_r	knee_adduction_r	knee_angle_r_beta	ankle_angle_r	subtalar_angle_r	mtp_angle_r	hip_flexion_l	hip_adduction_l	hip_rotation_l	knee_angle_l	knee_frontal_l	knee_adduction_l	knee_angle_l_beta	ankle_angle_l	subtalar_angle_l	mtp_angle_l	lumbar_extension	lumbar_bending	lumbar_rotation	arm_flex_r	arm_add_r	arm_rot_r	elbow_flex_r	pro_sup_r	wrist_flex_r	wrist_dev_r	arm_flex_l	arm_add_l	arm_rot_l	elbow_flex_l	pro_sup_l	wrist_flex_l	wrist_dev_l
      2.00000000	     -7.07773357	      1.81179452	     -6.54270614	      0.81441866	      0.96812616	      0.47427696	     29.85133833	     -2.02634771	      6.36314980	     68.89855169	      0.00000000	      0.00000000	      1.20250658	     -1.03624415	     -4.53942930	    -13.69522742	     13.74159680	      2.57583158	      0.78550080	     18.74702165	      0.00000000	      0.00000000	      0.32719725	      8.34252420	     -5.01225769	    -10.91735482	     -3.73215377	      0.49242927	      0.00690838	     -1.76612356	    -15.14224084	      0.61977049	     34.13511532	     90.00000001	      0.00000000	      0.00000000	     -5.13553451	    -19.86257112	      6.95450750	     41.78954534	     90.00000001	      0.00000000	      0.00000000
      2.00500000	     -7.08875361	      1.59510812	     -6.21465588	      0.81465687	      0.96900112	      0.47433735	     30.24008127	     -1.82353881	      6.03779800	     68.10572133	      0.00000000	      0.00000000	      1.18866908	     -0.15619457	     -4.41247654	    -12.44436681	     13.12743285	      2.39571618	      1.08155957	     18.35196250	      0.00000000	      0.00000000	      0.32030217	      8.37007646	     -4.57172259	    -11.11481730	     -3.61146791	      0.69666380	      0.00183203	     -2.22748522	    -14.95413799	      0.24695008	     33.24139135	     90.00000001	      0.00000000	      0.00000000	     -4.74694487	    -20.10377578	      6.98005205	     42.54159728	     90.00000001	      0.00000000	      0.00000000
      2.01000000	     -7.10200425	      1.60309973	     -6.13658336	      0.81425095	      0.96935122	      0.47422696	     30.75286804	     -1.76112586	      5.98079257	     67.33283148	      0.00000000	      0.00000000	      1.17517960	      0.28635950	     -4.44578302	    -12.35801520	     12.64537363	      2.44266632	      1.10747130	     18.09349180	      0.00000000	      0.00000000	      0.31579101	      8.46970036	     -4.38743287	    -11.22513763	     -3.62589881	      0.74064873	      0.00266587	     -2.56279144	    -14.86637520	      0.00648802	     32.91302829	     90.00000001	      0.00000000	      0.00000000	     -4.29190399	    -20.29822488	      6.99067754	     42.93998856	     90.00000001	      0.00000000	      0.00000000
      2.01500000	     -7.14304313	      1.70529249	     -6.10195355	      0.81371134	      0.96959428	      0.47419056	     31.31922258	     -1.78988118	      5.95404529	     66.52178934	      0.00000000	      0.00000000	      1.16102425	      0.69826707	     -4.57831493	    -12.31906777	     12.23790525	      2.57057512	      1.03518922	     17.90169635	      0.00000000	      0.00000000	      0.31244354	      8.50523167	     -4.18508928	    -11.30796627	     -3.63745022	      0.72592823	      0.00319163	     -2.92896361	    -14.79879769	     -0.07337852	     32.71418308	     90.00000001	      0.00000000	      0.00000000	     -3.80984837	    -20.49891326	      6.94459288	     43.25621010	     90.00000001	      0.00000000	      0.00000000
      2.02000000	     -7.16918745	      1.67902173	     -5.94880105	      0.81386019	      0.96995478	      0.47421352	     31.73066415	     -1.76594163	      5.77539888	     65.55114727	      0.00000000	      0.00000000	      1.14408335	      1.00175623	     -4.65333227	    -12.20118500	     11.69875659	      2.57568101	      1.16803438	     17.57807955	      0.00000000	      0.00000000	      0.30679536	      8.60410674	     -3.91666752	    -11.47608045	     -3.53984351	      0.73205112	      0.00153226	     -3.34964979	    -14.70359003	     -0.33165509	     32.30779717	     90.00000001	      0.00000000	      0.00000000	     -3.45753737	    -20.69481562	      6.93928174	     43.78791501	     90.00000001	      0.00000000	      0.00000000
      2.02500000	     -7.15287933	      1.66505893	     -5.81379995	      0.81380823	      0.97028073	      0.47424780	     32.07949371	     -1.71267909	      5.66572726	     64.52854155	      0.00000000	      0.00000000	      1.12623551	      1.37207558	     -4.82422128	    -12.04487604	     11.13002938	      2.60308032	      1.23746074	     17.25234407	      0.00000000	      0.00000000	      0.30111021	      8.66490730	     -3.78556209	    -11.58214711	     -3.48621725	      0.85954747	     -0.00056283	     -3.81341081	    -14.58715040	     -0.58823338	     31.97418700	     90.00000001	      0.00000000	      0.00000000	     -3.07592717	    -20.93067266	      6.93086908	     44.33462778	     90.00000001	      0.00000000	      0.00000000
      2.03000000	     -6.95444357	      1.53483484	     -5.67375275	      0.81359134	      0.97098240	      0.47419865	     32.15235242	     -1.61671989	      5.44387884	     63.34427422	      0.00000000	      0.00000000	      1.10556615	      1.60489740	     -4.96561482	    -11.89642633	     10.39319071	      2.54448018	      1.57355453	     16.98738748	      0.00000000	      0.00000000	      0.29648584	      8.64134729	     -3.85726448	    -11.86134434	     -3.79636077	      0.95671863	      0.00087888	     -4.06665228	    -14.47980930	     -1.22034704	     31.57407426	     90.00000001	      0.00000000	      0.00000000	     -2.66092766	    -21.13831438	      7.04776554	     45.04938853	     90.00000001	      0.00000000	      0.00000000
      2.03500000	     -6.91867000	      1.62728337	     -5.55742174	      0.81348746	      0.97112842	      0.47414409	     32.45211086	     -1.73822337	      5.36264874	     62.19142635	      0.00000000	      0.00000000	      1.08544516	      1.64180409	     -5.02981522	    -12.55828483	      9.83597402	      2.68328589	      1.67806925	     16.68953160	      0.00000000	      0.00000000	      0.29128728	      8.68270693	     -3.75214589	    -12.11135999	     -3.84110094	      0.87796279	      0.00210880	     -4.48600727	    -14.39239277	     -1.55707096	     31.37340444	     90.00000001	      0.00000000	      0.00000000	     -2.23460640	    -21.36505208	      7.05245239	     45.47739669	     90.00000001	      0.00000000	      0.00000000
      2.04000000	     -6.94911215	      1.80338178	     -5.57833780	      0.81277421	      0.97082515	      0.47412057	     32.95799159	     -1.82272146	      5.49411634	     61.16026830	      0.00000000	      0.00000000	      1.06744805	      1.88246661	     -4.94402063	    -12.59919858	      9.49986108	      2.90054383	      1.54945774	     16.61328985	      0.00000000	      0.00000000	      0.28995661	      8.82517053	     -3.73131080	    -12.15999015	     -3.81594170	      0.75284198	      0.00101239	     -4.79746174	    -14.38342746	     -1.59615919	     31.28014640	     90.00000001	      0.00000000	      0.00000000	     -1.74999610	    -21.52260949	      7.00474245	     45.73427326	     90.00000001	      0.00000000	      0.00000000
      2.04500000	     -7.05333331	      1.95343257	     -5.48725487	      0.81235658	      0.97086959	      0.47424346	     33.40677308	     -1.93933154	      5.46614265	     59.91162824	      0.00000000	      0.00000000	      1.04565517	      2.03903029	     -4.98591681	    -12.60665969	      9.11546644	      3.05153538	      1.56335011	     16.32844206	      0.00000000	      0.00000000	      0.28498508	      8.83226537	     -3.39553093	    -12.25474485	     -3.70482280	      0.59748215	      0.00325062	     -5.19070451	    -14.24773468	     -1.64684843	     31.11155863	     90.00000001	      0.00000000	      0.00000000	     -1.30728544	    -21.74049054	      6.94223882	     46.13171715	     90.00000001	      0.00000000	      0.00000000
